# xmcd
# 
# Track frame offsets:
#     182
#     23505
#     45922
#     65240
#     86892
#     110697
#     139495
#     159885
#     176490
#     199192
#     218655
#     253525
#     270662
# 
# Disc length: 3995
# 
# Revision: 40
# Processed by: cddbd v1.5.2PL0 Copyright (c) Steve Scherf et al.
# Submitted via: fre:ac v1.0.31
# 
DISCID=b60f990d
DTITLE=Lenny Kravitz - 5 [1998 Virgin CD]
DYEAR=1998
DGENRE=Rock
TTITLE0=Live
TTITLE1=Supersoulfighter
TTITLE2=I Belong To You
TTITLE3=Black Velveteen
TTITLE4=If You Can't Say No
TTITLE5=Thinking Of You
TTITLE6=Take Time
TTITLE7=Fly Away
TTITLE8=It's Your Life
TTITLE9=Straight Cold Player
TTITLE10=Little Girl's Eyes
TTITLE11=You're My Flavor
TTITLE12=Can We Find A Reason?
EXTD=YEAR: 1998
EXTT0=
EXTT1=
EXTT2=
EXTT3=
EXTT4=
EXTT5=
EXTT6=
EXTT7=
EXTT8=
EXTT9=
EXTT10=
EXTT11=
EXTT12=
PLAYORDER=
